<?xml version="1.0" standalone="no"?><!-- Generator: Gravit.io --><svg xmlns="http://www.w3.org/2000/svg" xmlns:xlink="http://www.w3.org/1999/xlink" style="isolation:isolate" viewBox="556 1668 100 100" width="100" height="100"><g><polygon points="605,1768,590,1748,620,1748" fill="rgb(84,183,183)"/><polygon points="605,1668,620,1688,590,1688" fill="rgb(84,183,183)"/><polygon points="656,1718.209,636,1733.209,636,1703.209" fill="rgb(84,183,183)"/><polygon points="556,1718.209,576,1703.209,576,1733.209" fill="rgb(84,183,183)"/><rect x="575" y="1688" width="60" height="60" transform="matrix(1,0,0,1,0,0)" fill="rgb(46,46,46)" vector-effect="non-scaling-stroke" stroke-width="2" stroke="rgb(66,234,66)" stroke-linejoin="miter" stroke-linecap="square" stroke-miterlimit="2"/><path d=" M 605.5 1693 C 591.694 1693 580.5 1704.194 580.5 1718 C 580.5 1731.806 591.694 1743 605.5 1743 C 619.306 1743 630.5 1731.806 630.5 1718 C 630.5 1704.194 619.319 1693 605.5 1693 L 605.5 1693 Z  M 603.985 1707.263 C 603.985 1706.558 604.56 1705.996 605.252 1705.996 L 605.761 1705.996 C 606.467 1705.996 607.028 1706.571 607.028 1707.263 L 607.028 1715.035 C 607.028 1715.74 606.453 1716.302 605.761 1716.302 L 605.252 1716.302 C 604.552 1716.302 603.985 1715.735 603.985 1715.035 L 603.985 1707.263 L 603.985 1707.263 Z  M 605.5 1728.724 C 599.701 1728.724 594.985 1724.008 594.985 1718.209 C 594.985 1714.33 597.114 1710.79 600.524 1708.948 C 601.046 1708.674 601.699 1708.87 601.973 1709.379 C 602.248 1709.902 602.052 1710.555 601.542 1710.829 C 598.823 1712.288 597.127 1715.123 597.127 1718.209 C 597.129 1722.303 600.093 1725.794 604.132 1726.461 C 608.171 1727.128 612.1 1724.774 613.417 1720.898 C 614.734 1717.022 613.054 1712.762 609.445 1710.829 C 609.193 1710.696 609.005 1710.468 608.924 1710.195 C 608.843 1709.922 608.875 1709.628 609.014 1709.379 C 609.288 1708.857 609.941 1708.661 610.463 1708.948 C 613.877 1710.776 616.006 1714.337 616.002 1718.209 C 616.015 1724.008 611.299 1728.724 605.5 1728.724 Z " fill="rgb(66,234,66)"/></g></svg>