<?xml version="1.0" standalone="no"?><!-- Generator: Gravit.io --><svg xmlns="http://www.w3.org/2000/svg" xmlns:xlink="http://www.w3.org/1999/xlink" style="isolation:isolate" viewBox="159 6294.5 21 21" width="21" height="21"><path d=" M 169.5 6295.993 C 164.533 6295.993 160.493 6300.033 160.493 6305 C 160.493 6309.967 164.533 6314.007 169.5 6314.007 C 174.467 6314.007 178.507 6309.967 178.507 6305 C 178.512 6300.033 174.467 6295.993 169.5 6295.993 L 169.5 6295.993 Z  M 174.861 6305.261 L 167.081 6310.385 C 166.985 6310.445 166.866 6310.45 166.765 6310.4 C 166.667 6310.346 166.603 6310.243 166.603 6310.129 L 166.603 6299.881 C 166.603 6299.767 166.667 6299.664 166.765 6299.61 C 166.864 6299.555 166.987 6299.56 167.081 6299.624 L 174.861 6304.749 C 174.95 6304.808 174.999 6304.901 174.999 6305.005 C 174.999 6305.103 174.945 6305.202 174.861 6305.261 Z  M 167.219 6309.553 L 174.132 6305 L 167.219 6300.447 L 167.219 6309.553 Z  M 169.5 6294.5 C 163.701 6294.5 159 6299.201 159 6305 C 159 6310.799 163.701 6315.5 169.5 6315.5 C 175.299 6315.5 180 6310.799 180 6305 C 180 6299.201 175.299 6294.5 169.5 6294.5 Z  M 169.5 6314.505 C 164.262 6314.505 160 6310.243 160 6305.005 C 160 6299.767 164.262 6295.505 169.5 6295.505 C 174.738 6295.505 179 6299.767 179 6305.005 C 179.005 6310.243 174.743 6314.505 169.5 6314.505 Z " fill="rgb(185,185,185)"/></svg>