<?xml version="1.0" standalone="no"?><!-- Generator: Gravit.io --><svg xmlns="http://www.w3.org/2000/svg" xmlns:xlink="http://www.w3.org/1999/xlink" style="isolation:isolate" viewBox="871 3425 100 100" width="100" height="100"><g><path d="M 971 3434.5 L 971 3515.5 C 971 3520.743 966.743 3525 961.5 3525 L 880.5 3525 C 875.257 3525 871 3520.743 871 3515.5 L 871 3434.5 C 871 3429.257 875.257 3425 880.5 3425 L 961.5 3425 C 966.743 3425 971 3429.257 971 3434.5 Z" style="stroke:none;fill:#2E2E2E;stroke-miterlimit:10;"/><g><path d=" M 906.86 3472.522 C 907.215 3472.522 907.568 3472.569 907.906 3472.663 L 936.503 3480.16 C 938.429 3480.671 939.664 3482.479 939.391 3484.388 C 939.227 3485.473 938.591 3486.438 937.643 3487.041 C 936.695 3487.643 935.524 3487.826 934.427 3487.542 L 905.829 3480.038 C 903.903 3479.528 902.668 3477.719 902.941 3475.81 C 903.228 3473.931 904.892 3472.535 906.86 3472.522 Z " fill="rgb(31,60,85)"/><path d=" M 935.471 3486.822 C 935.202 3486.822 934.924 3486.788 934.661 3486.715 L 906.064 3479.217 C 904.568 3478.82 903.608 3477.413 903.822 3475.93 C 904.042 3474.471 905.333 3473.387 906.86 3473.378 C 907.139 3473.378 907.408 3473.412 907.678 3473.484 L 936.274 3480.989 C 937.771 3481.383 938.732 3482.788 938.519 3484.27 C 938.297 3485.731 937.002 3486.817 935.471 3486.822 Z  M 935.471 3488.533 C 937.898 3488.527 939.946 3486.791 940.266 3484.47 C 940.586 3482.149 939.079 3479.957 936.739 3479.339 L 908.142 3471.835 C 905.557 3471.157 902.892 3472.63 902.191 3475.125 C 901.489 3477.619 903.015 3480.191 905.6 3480.868 L 934.199 3488.367 C 934.614 3488.478 935.043 3488.534 935.473 3488.533 L 935.471 3488.533 Z " fill="rgb(31,60,85)"/><path d=" M 906.86 3484.489 C 907.291 3484.489 907.719 3484.557 908.128 3484.689 L 936.22 3493.789 C 938.113 3494.405 939.238 3496.283 938.843 3498.173 C 938.615 3499.247 937.922 3500.175 936.939 3500.723 C 935.956 3501.271 934.776 3501.386 933.699 3501.04 L 905.6 3491.94 C 904.025 3491.947 902.596 3491.054 901.958 3489.665 C 901.319 3488.276 901.594 3486.654 902.656 3485.532 C 903.718 3484.411 905.368 3484.002 906.859 3484.491 L 906.86 3484.489 Z " fill="rgb(31,60,85)"/><path d=" M 934.966 3500.385 C 934.633 3500.385 934.302 3500.332 933.983 3500.231 L 905.885 3491.131 C 904.274 3490.609 903.405 3488.925 903.946 3487.37 C 904.487 3485.814 906.232 3484.976 907.844 3485.498 L 935.943 3494.598 C 937.413 3495.078 938.285 3496.538 937.978 3498.006 C 937.683 3499.386 936.425 3500.379 934.965 3500.383 M 934.965 3502.094 C 937.271 3502.091 939.257 3500.522 939.715 3498.341 C 940.2 3496.028 938.822 3493.73 936.503 3492.982 L 908.404 3483.882 C 907.892 3483.714 907.373 3483.634 906.862 3483.634 C 904.488 3483.641 902.468 3485.304 902.086 3487.565 C 901.705 3489.826 903.074 3492.021 905.324 3492.754 L 933.415 3501.854 C 933.915 3502.015 934.439 3502.096 934.966 3502.094 L 934.965 3502.094 Z  M 915.675 3450.132 C 915.676 3448.298 916.69 3446.603 918.337 3445.687 C 919.983 3444.77 922.011 3444.771 923.656 3445.689 C 925.302 3446.606 926.315 3448.301 926.314 3450.135 C 926.313 3452.97 923.931 3455.268 920.993 3455.267 C 918.055 3455.266 915.674 3452.967 915.675 3450.132 L 915.675 3450.132 Z " fill="rgb(11,36,62)"/><path d=" M 928.083 3449.276 C 929.552 3449.276 930.742 3450.425 930.742 3451.842 L 930.742 3459.539 L 911.244 3459.539 L 911.244 3451.842 C 911.244 3450.425 912.434 3449.276 913.903 3449.276 L 928.083 3449.276 Z " fill="rgb(223,240,254)"/><path d=" M 912.13 3458.684 L 912.13 3451.842 C 912.13 3450.901 912.928 3450.132 913.903 3450.132 L 928.083 3450.132 C 929.058 3450.132 929.856 3450.901 929.856 3451.842 L 929.856 3458.684 L 912.13 3458.684 Z  M 910.358 3460.395 L 931.629 3460.395 L 931.629 3451.842 C 931.629 3449.953 930.041 3448.421 928.083 3448.421 L 913.903 3448.421 C 911.945 3448.421 910.358 3449.953 910.358 3451.842 L 910.358 3460.395 Z " fill="rgb(71,136,199)"/><path d=" M 916.562 3473.224 L 911.244 3473.224 L 911.244 3464.671 L 916.562 3464.671 L 916.562 3473.224 Z " fill="rgb(31,60,85)"/><path d=" M 912.13 3472.368 L 912.13 3465.526 L 915.675 3465.526 L 915.675 3472.368 L 912.13 3472.368 Z  M 910.358 3474.079 L 917.448 3474.079 L 917.448 3463.816 L 910.358 3463.816 L 910.358 3474.079 Z " fill="rgb(31,60,85)"/><path d=" M 930.742 3464.671 L 930.742 3468.787 L 935.05 3468.154 C 935.25 3468.119 935.45 3468.106 935.652 3468.106 C 937.792 3468.12 939.538 3469.764 939.605 3471.828 C 939.659 3473.754 938.219 3475.418 936.246 3475.711 L 906.951 3480.032 C 906.743 3480.066 906.543 3480.079 906.341 3480.079 C 904.216 3480.079 902.443 3478.408 902.388 3476.357 C 902.335 3474.43 903.777 3472.765 905.753 3472.474 L 925.425 3469.568 L 925.425 3464.671 L 930.742 3464.671 Z " fill="rgb(31,60,85)"/><path d=" M 906.341 3479.224 C 904.693 3479.224 903.315 3477.928 903.274 3476.337 C 903.234 3474.84 904.352 3473.547 905.885 3473.318 L 924.808 3470.524 L 926.311 3470.304 L 926.311 3465.526 L 929.856 3465.526 L 929.856 3469.782 L 931.898 3469.483 L 935.181 3468.994 C 935.34 3468.975 935.5 3468.959 935.652 3468.959 C 937.312 3468.973 938.667 3470.246 938.726 3471.847 C 938.767 3473.346 937.645 3474.641 936.108 3474.868 L 906.82 3479.19 C 906.661 3479.211 906.501 3479.222 906.341 3479.224 Z  M 906.341 3480.935 C 906.589 3480.933 906.836 3480.915 907.082 3480.882 L 936.379 3476.557 C 938.795 3476.199 940.559 3474.165 940.498 3471.807 C 940.46 3470.464 939.826 3469.201 938.757 3468.34 C 937.688 3467.478 936.288 3467.101 934.911 3467.304 L 931.629 3467.791 L 931.629 3463.816 L 924.538 3463.816 L 924.538 3468.834 L 905.614 3471.626 C 903.197 3471.986 901.434 3474.025 901.502 3476.385 C 901.578 3478.913 903.72 3480.927 906.341 3480.935 Z " fill="rgb(11,36,62)"/><path d=" M 935.652 3493.764 C 937.792 3493.777 939.538 3495.421 939.605 3497.486 C 939.659 3499.412 938.219 3501.076 936.246 3501.369 L 922.018 3503.466 C 916.776 3505.043 914.839 3507.561 914.153 3508.91 C 911.466 3507.901 906.598 3505.443 905.988 3502.303 L 905.974 3501.601 L 905.955 3501.427 C 905.905 3499.562 907.346 3497.893 909.319 3497.606 L 935.05 3493.81 C 935.25 3493.776 935.45 3493.764 935.652 3493.764 Z " fill="rgb(31,60,85)"/><path d=" M 913.75 3507.828 C 911.286 3506.8 907.561 3504.767 906.908 3502.371 L 906.86 3501.56 L 906.841 3501.381 C 906.85 3499.919 907.954 3498.678 909.45 3498.447 L 935.181 3494.651 C 935.34 3494.633 935.5 3494.617 935.652 3494.617 C 937.316 3494.631 938.672 3495.909 938.726 3497.513 C 938.761 3499.01 937.641 3500.299 936.108 3500.527 L 921.886 3502.624 L 921.748 3502.645 L 921.624 3502.686 C 916.943 3504.102 914.754 3506.273 913.75 3507.829 M 914.665 3510 C 914.665 3510 915.418 3506.351 922.149 3504.314 L 936.379 3502.215 C 938.795 3501.857 940.559 3499.823 940.498 3497.465 C 940.46 3496.122 939.826 3494.859 938.757 3493.998 C 937.688 3493.136 936.288 3492.759 934.911 3492.961 L 909.188 3496.764 C 906.771 3497.12 905.005 3499.155 905.068 3501.514 C 905.075 3501.567 905.088 3501.615 905.088 3501.661 L 905.04 3501.654 C 905.04 3506.912 914.665 3510 914.665 3510 Z " fill="rgb(11,36,62)"/><path d=" M 933.401 3459.539 C 935.848 3459.541 937.831 3461.455 937.833 3463.816 L 937.833 3464.671 L 904.154 3464.671 L 904.154 3463.816 C 904.154 3461.457 906.141 3459.539 908.585 3459.539 L 933.401 3459.539 Z " fill="rgb(223,240,254)"/><path d=" M 905.04 3463.816 C 905.04 3461.931 906.632 3460.395 908.585 3460.395 L 933.401 3460.395 C 935.354 3460.395 936.946 3461.931 936.946 3463.816 L 905.04 3463.816 Z  M 903.267 3465.526 L 938.719 3465.526 L 938.719 3463.816 C 938.719 3460.982 936.338 3458.684 933.401 3458.684 L 908.585 3458.684 C 905.648 3458.684 903.267 3460.982 903.267 3463.816 L 903.267 3465.526 Z  M 911.244 3451.842 L 921.879 3451.842 C 922.115 3451.841 922.341 3451.931 922.507 3452.092 C 922.674 3452.252 922.767 3452.47 922.766 3452.697 C 922.766 3453.171 922.37 3453.553 921.879 3453.553 L 911.244 3453.553 C 910.754 3453.553 910.358 3453.17 910.358 3452.697 C 910.358 3452.225 910.754 3451.842 911.244 3451.842 Z  M 927.197 3451.842 L 930.742 3451.842 C 930.978 3451.841 931.204 3451.931 931.37 3452.092 C 931.536 3452.252 931.629 3452.47 931.629 3452.697 C 931.629 3453.171 931.233 3453.553 930.742 3453.553 L 927.197 3453.553 C 926.708 3453.553 926.311 3453.17 926.311 3452.697 C 926.311 3452.225 926.708 3451.842 927.197 3451.842 Z  M 911.244 3455.263 L 921.879 3455.263 C 922.115 3455.262 922.341 3455.352 922.507 3455.513 C 922.674 3455.673 922.767 3455.891 922.766 3456.118 C 922.766 3456.592 922.37 3456.974 921.879 3456.974 L 911.244 3456.974 C 910.754 3456.974 910.358 3456.591 910.358 3456.118 C 910.358 3455.646 910.754 3455.263 911.244 3455.263 Z  M 927.197 3455.263 L 930.742 3455.263 C 930.978 3455.262 931.204 3455.352 931.37 3455.513 C 931.536 3455.673 931.629 3455.891 931.629 3456.118 C 931.629 3456.592 931.233 3456.974 930.742 3456.974 L 927.197 3456.974 C 926.708 3456.974 926.311 3456.591 926.311 3456.118 C 926.311 3455.646 926.708 3455.263 927.197 3455.263 Z " fill="rgb(71,136,199)"/><path d=" M 935.652 3480.079 C 937.792 3480.093 939.538 3481.737 939.605 3483.802 C 939.659 3485.728 938.219 3487.391 936.246 3487.684 L 906.951 3492.005 C 906.743 3492.039 906.543 3492.053 906.341 3492.053 C 904.216 3492.053 902.443 3490.382 902.388 3488.331 C 902.335 3486.403 903.777 3484.739 905.753 3484.448 L 935.05 3480.126 C 935.25 3480.091 935.45 3480.079 935.652 3480.079 Z " fill="rgb(31,60,85)"/><path d=" M 906.341 3491.198 C 904.693 3491.198 903.315 3489.901 903.274 3488.311 C 903.234 3486.814 904.352 3485.521 905.885 3485.291 L 935.181 3480.967 C 935.34 3480.948 935.5 3480.933 935.652 3480.933 C 937.312 3480.947 938.667 3482.219 938.726 3483.82 C 938.767 3485.32 937.645 3486.615 936.108 3486.841 L 906.82 3491.164 C 906.661 3491.185 906.501 3491.196 906.341 3491.198 Z  M 906.341 3492.908 C 906.589 3492.907 906.836 3492.889 907.082 3492.855 L 936.379 3488.531 C 938.795 3488.173 940.559 3486.139 940.498 3483.781 C 940.46 3482.438 939.826 3481.175 938.757 3480.314 C 937.688 3479.452 936.288 3479.075 934.911 3479.277 L 905.614 3483.6 C 903.197 3483.959 901.434 3485.999 901.502 3488.358 C 901.578 3490.887 903.72 3492.9 906.341 3492.908 Z " fill="rgb(11,36,62)"/><polygon points="921,3445,906,3425,936,3425" fill="rgb(116,116,116)"/></g></g></svg>