<?xml version="1.0" standalone="no"?><!-- Generator: Gravit.io --><svg xmlns="http://www.w3.org/2000/svg" xmlns:xlink="http://www.w3.org/1999/xlink" style="isolation:isolate" viewBox="871 3425 100 100" width="100" height="100"><g><path d="M 961.5 3525 L 880.5 3525 C 875.257 3525 871 3520.743 871 3515.5 L 871 3434.5 C 871 3429.257 875.257 3425 880.5 3425 L 961.5 3425 C 966.743 3425 971 3429.257 971 3434.5 L 971 3515.5 C 971 3520.743 966.743 3525 961.5 3525 Z" style="stroke:none;fill:#2E2E2E;stroke-miterlimit:10;"/><g><path d=" M 923.478 3460.86 C 923.478 3461.215 923.431 3461.568 923.337 3461.906 L 915.84 3490.503 C 915.329 3492.429 913.521 3493.664 911.612 3493.391 C 910.527 3493.227 909.562 3492.591 908.959 3491.643 C 908.357 3490.695 908.174 3489.524 908.458 3488.427 L 915.962 3459.829 C 916.472 3457.903 918.281 3456.668 920.19 3456.941 C 922.069 3457.228 923.465 3458.892 923.478 3460.86 Z " fill="rgb(152,204,253)"/><path d=" M 909.178 3489.471 C 909.178 3489.202 909.212 3488.924 909.285 3488.661 L 916.783 3460.064 C 917.18 3458.568 918.587 3457.608 920.07 3457.822 C 921.529 3458.042 922.613 3459.333 922.622 3460.86 C 922.622 3461.139 922.588 3461.408 922.516 3461.678 L 915.011 3490.274 C 914.617 3491.771 913.212 3492.732 911.73 3492.519 C 910.269 3492.297 909.183 3491.002 909.178 3489.471 Z  M 907.467 3489.471 C 907.473 3491.898 909.209 3493.946 911.53 3494.266 C 913.851 3494.586 916.043 3493.079 916.661 3490.739 L 924.165 3462.142 C 924.843 3459.557 923.37 3456.892 920.875 3456.191 C 918.381 3455.489 915.809 3457.015 915.132 3459.6 L 907.633 3488.199 C 907.522 3488.614 907.466 3489.043 907.467 3489.473 L 907.467 3489.471 Z " fill="rgb(71,136,199)"/><path d=" M 911.511 3460.86 C 911.511 3461.291 911.443 3461.719 911.311 3462.128 L 902.211 3490.22 C 901.595 3492.113 899.717 3493.238 897.827 3492.843 C 896.753 3492.615 895.825 3491.922 895.277 3490.939 C 894.729 3489.956 894.614 3488.776 894.96 3487.699 L 904.06 3459.6 C 904.053 3458.025 904.946 3456.596 906.335 3455.958 C 907.724 3455.319 909.346 3455.594 910.468 3456.656 C 911.589 3457.718 911.998 3459.368 911.509 3460.859 L 911.511 3460.86 Z " fill="rgb(152,204,253)"/><path d=" M 895.615 3488.966 C 895.615 3488.633 895.668 3488.302 895.769 3487.983 L 904.869 3459.885 C 905.391 3458.274 907.075 3457.405 908.63 3457.946 C 910.186 3458.487 911.024 3460.232 910.502 3461.844 L 901.402 3489.943 C 900.922 3491.413 899.462 3492.285 897.994 3491.978 C 896.614 3491.683 895.621 3490.425 895.617 3488.965 M 893.906 3488.965 C 893.909 3491.271 895.478 3493.257 897.659 3493.715 C 899.972 3494.2 902.27 3492.822 903.018 3490.503 L 912.118 3462.404 C 912.286 3461.892 912.366 3461.373 912.366 3460.862 C 912.359 3458.488 910.696 3456.468 908.435 3456.086 C 906.174 3455.705 903.979 3457.074 903.246 3459.324 L 894.146 3487.415 C 893.985 3487.915 893.904 3488.439 893.906 3488.966 L 893.906 3488.965 Z  M 945.868 3469.675 C 947.702 3469.676 949.397 3470.69 950.313 3472.337 C 951.23 3473.983 951.229 3476.011 950.311 3477.656 C 949.394 3479.302 947.699 3480.315 945.865 3480.314 C 943.03 3480.313 940.732 3477.931 940.733 3474.993 C 940.734 3472.055 943.033 3469.674 945.868 3469.675 L 945.868 3469.675 Z " fill="rgb(71,136,199)"/><path d=" M 946.724 3482.083 C 946.724 3483.552 945.575 3484.742 944.158 3484.742 L 936.461 3484.742 L 936.461 3465.244 L 944.158 3465.244 C 945.575 3465.244 946.724 3466.434 946.724 3467.903 L 946.724 3482.083 Z " fill="rgb(223,240,254)"/><path d=" M 937.316 3466.13 L 944.158 3466.13 C 945.099 3466.13 945.868 3466.928 945.868 3467.903 L 945.868 3482.083 C 945.868 3483.058 945.099 3483.856 944.158 3483.856 L 937.316 3483.856 L 937.316 3466.13 Z  M 935.605 3464.358 L 935.605 3485.629 L 944.158 3485.629 C 946.047 3485.629 947.579 3484.041 947.579 3482.083 L 947.579 3467.903 C 947.579 3465.945 946.047 3464.358 944.158 3464.358 L 935.605 3464.358 Z " fill="rgb(71,136,199)"/><path d=" M 922.776 3470.562 L 922.776 3465.244 L 931.329 3465.244 L 931.329 3470.562 L 922.776 3470.562 Z " fill="rgb(182,220,254)"/><path d=" M 923.632 3466.13 L 930.474 3466.13 L 930.474 3469.675 L 923.632 3469.675 L 923.632 3466.13 Z  M 921.921 3464.358 L 921.921 3471.448 L 932.184 3471.448 L 932.184 3464.358 L 921.921 3464.358 Z " fill="rgb(71,136,199)"/><path d=" M 931.329 3484.742 L 927.213 3484.742 L 927.846 3489.05 C 927.881 3489.25 927.894 3489.45 927.894 3489.652 C 927.88 3491.792 926.236 3493.538 924.172 3493.605 C 922.246 3493.659 920.582 3492.219 920.289 3490.246 L 915.968 3460.951 C 915.934 3460.743 915.921 3460.543 915.921 3460.341 C 915.921 3458.216 917.592 3456.443 919.643 3456.388 C 921.57 3456.335 923.235 3457.777 923.526 3459.753 L 926.432 3479.425 L 931.329 3479.425 L 931.329 3484.742 Z " fill="rgb(182,220,254)"/><path d=" M 916.776 3460.341 C 916.776 3458.693 918.072 3457.315 919.663 3457.274 C 921.16 3457.234 922.453 3458.352 922.682 3459.885 L 925.476 3478.808 L 925.696 3480.311 L 930.474 3480.311 L 930.474 3483.856 L 926.218 3483.856 L 926.517 3485.898 L 927.006 3489.181 C 927.025 3489.34 927.041 3489.5 927.041 3489.652 C 927.027 3491.312 925.754 3492.667 924.153 3492.726 C 922.654 3492.767 921.359 3491.645 921.132 3490.108 L 916.81 3460.82 C 916.789 3460.661 916.778 3460.501 916.776 3460.341 Z  M 915.065 3460.341 C 915.067 3460.589 915.085 3460.836 915.118 3461.082 L 919.443 3490.379 C 919.801 3492.795 921.835 3494.559 924.193 3494.498 C 925.536 3494.46 926.799 3493.826 927.66 3492.757 C 928.522 3491.688 928.899 3490.288 928.696 3488.911 L 928.209 3485.629 L 932.184 3485.629 L 932.184 3478.538 L 927.166 3478.538 L 924.374 3459.614 C 924.014 3457.197 921.975 3455.434 919.615 3455.502 C 917.087 3455.578 915.073 3457.72 915.065 3460.341 Z " fill="rgb(71,136,199)"/><path d=" M 902.236 3489.652 C 902.223 3491.792 900.579 3493.538 898.514 3493.605 C 896.588 3493.659 894.924 3492.219 894.631 3490.246 L 892.534 3476.018 C 890.957 3470.776 888.439 3468.839 887.09 3468.153 C 888.099 3465.466 890.557 3460.598 893.697 3459.988 L 894.399 3459.974 L 894.573 3459.955 C 896.438 3459.905 898.107 3461.346 898.394 3463.319 L 902.19 3489.05 C 902.224 3489.25 902.236 3489.45 902.236 3489.652 Z " fill="rgb(182,220,254)"/><path d=" M 888.172 3467.75 C 889.2 3465.286 891.233 3461.561 893.629 3460.908 L 894.44 3460.86 L 894.619 3460.841 C 896.081 3460.85 897.322 3461.954 897.553 3463.45 L 901.349 3489.181 C 901.367 3489.34 901.383 3489.5 901.383 3489.652 C 901.369 3491.316 900.091 3492.672 898.487 3492.726 C 896.99 3492.761 895.701 3491.641 895.473 3490.108 L 893.376 3475.886 L 893.355 3475.748 L 893.314 3475.624 C 891.898 3470.943 889.727 3468.754 888.171 3467.75 M 886 3468.665 C 886 3468.665 889.649 3469.418 891.686 3476.149 L 893.785 3490.379 C 894.143 3492.795 896.177 3494.559 898.535 3494.498 C 899.878 3494.46 901.141 3493.826 902.002 3492.757 C 902.864 3491.688 903.241 3490.288 903.039 3488.911 L 899.236 3463.188 C 898.88 3460.771 896.845 3459.005 894.486 3459.068 C 894.433 3459.075 894.385 3459.088 894.339 3459.088 L 894.346 3459.04 C 889.088 3459.04 886 3468.665 886 3468.665 Z " fill="rgb(71,136,199)"/><path d=" M 936.461 3487.401 C 936.459 3489.848 934.545 3491.831 932.184 3491.833 L 931.329 3491.833 L 931.329 3458.154 L 932.184 3458.154 C 934.543 3458.154 936.461 3460.141 936.461 3462.585 L 936.461 3487.401 Z " fill="rgb(223,240,254)"/><path d=" M 932.184 3459.04 C 934.069 3459.04 935.605 3460.632 935.605 3462.585 L 935.605 3487.401 C 935.605 3489.354 934.069 3490.946 932.184 3490.946 L 932.184 3459.04 Z  M 930.474 3457.267 L 930.474 3492.719 L 932.184 3492.719 C 935.018 3492.719 937.316 3490.338 937.316 3487.401 L 937.316 3462.585 C 937.316 3459.648 935.018 3457.267 932.184 3457.267 L 930.474 3457.267 Z  M 944.158 3465.244 L 944.158 3475.879 C 944.159 3476.115 944.069 3476.341 943.908 3476.507 C 943.748 3476.674 943.53 3476.767 943.303 3476.766 C 942.829 3476.766 942.447 3476.37 942.447 3475.879 L 942.447 3465.244 C 942.447 3464.754 942.83 3464.358 943.303 3464.358 C 943.775 3464.358 944.158 3464.754 944.158 3465.244 Z  M 944.158 3481.197 L 944.158 3484.742 C 944.159 3484.978 944.069 3485.204 943.908 3485.37 C 943.748 3485.536 943.53 3485.629 943.303 3485.629 C 942.829 3485.629 942.447 3485.233 942.447 3484.742 L 942.447 3481.197 C 942.447 3480.708 942.83 3480.311 943.303 3480.311 C 943.775 3480.311 944.158 3480.708 944.158 3481.197 Z  M 940.737 3465.244 L 940.737 3475.879 C 940.738 3476.115 940.648 3476.341 940.487 3476.507 C 940.327 3476.674 940.109 3476.767 939.882 3476.766 C 939.408 3476.766 939.026 3476.37 939.026 3475.879 L 939.026 3465.244 C 939.026 3464.754 939.409 3464.358 939.882 3464.358 C 940.354 3464.358 940.737 3464.754 940.737 3465.244 Z  M 940.737 3481.197 L 940.737 3484.742 C 940.738 3484.978 940.648 3485.204 940.487 3485.37 C 940.327 3485.536 940.109 3485.629 939.882 3485.629 C 939.408 3485.629 939.026 3485.233 939.026 3484.742 L 939.026 3481.197 C 939.026 3480.708 939.409 3480.311 939.882 3480.311 C 940.354 3480.311 940.737 3480.708 940.737 3481.197 Z " fill="rgb(71,136,199)"/><path d=" M 915.921 3489.652 C 915.907 3491.792 914.263 3493.538 912.198 3493.605 C 910.272 3493.659 908.609 3492.219 908.316 3490.246 L 903.995 3460.951 C 903.961 3460.743 903.947 3460.543 903.947 3460.341 C 903.947 3458.216 905.618 3456.443 907.669 3456.388 C 909.597 3456.335 911.261 3457.777 911.552 3459.753 L 915.874 3489.05 C 915.909 3489.25 915.921 3489.45 915.921 3489.652 Z " fill="rgb(182,220,254)"/><path d=" M 904.802 3460.341 C 904.802 3458.693 906.099 3457.315 907.689 3457.274 C 909.186 3457.234 910.479 3458.352 910.709 3459.885 L 915.033 3489.181 C 915.052 3489.34 915.067 3489.5 915.067 3489.652 C 915.053 3491.312 913.781 3492.667 912.18 3492.726 C 910.68 3492.767 909.385 3491.645 909.159 3490.108 L 904.836 3460.82 C 904.815 3460.661 904.804 3460.501 904.802 3460.341 Z  M 903.092 3460.341 C 903.093 3460.589 903.111 3460.836 903.145 3461.082 L 907.469 3490.379 C 907.827 3492.795 909.861 3494.559 912.219 3494.498 C 913.562 3494.46 914.825 3493.826 915.686 3492.757 C 916.548 3491.688 916.925 3490.288 916.723 3488.911 L 912.4 3459.614 C 912.041 3457.197 910.001 3455.434 907.642 3455.502 C 905.113 3455.578 903.1 3457.72 903.092 3460.341 Z " fill="rgb(71,136,199)"/><polygon points="951,3475,971,3460,971,3490" fill="rgb(84,183,183)"/></g></g></svg>