<?xml version="1.0" standalone="no"?><!-- Generator: Gravit.io --><svg xmlns="http://www.w3.org/2000/svg" xmlns:xlink="http://www.w3.org/1999/xlink" style="isolation:isolate" viewBox="239 5718 101.5 100" width="101.5" height="100"><g><polygon points="289,5818,259,5778,319,5778" fill="rgb(116,116,116)"/><polygon points="239,5768,279,5738,279,5798" fill="rgb(116,116,116)"/><polygon points="289,5718,319,5758,259,5758" fill="rgb(116,116,116)"/><polygon points="340.5,5768,300.5,5798,300.5,5738" fill="rgb(116,116,116)"/><rect x="275.5" y="5755" width="26" height="26" transform="matrix(1,0,0,1,0,0)" fill="rgb(114,193,114)"/><path d=" M 289 5743 C 275.194 5743 264 5754.194 264 5768 C 264 5781.806 275.194 5793 289 5793 C 302.806 5793 314 5781.806 314 5768 C 314 5754.194 302.819 5743 289 5743 L 289 5743 Z  M 287.485 5757.263 C 287.485 5756.558 288.06 5755.996 288.752 5755.996 L 289.261 5755.996 C 289.967 5755.996 290.528 5756.571 290.528 5757.263 L 290.528 5765.035 C 290.528 5765.74 289.953 5766.302 289.261 5766.302 L 288.752 5766.302 C 288.052 5766.302 287.485 5765.735 287.485 5765.035 L 287.485 5757.263 L 287.485 5757.263 Z  M 289 5778.724 C 283.201 5778.724 278.485 5774.008 278.485 5768.209 C 278.485 5764.33 280.614 5760.79 284.024 5758.948 C 284.546 5758.674 285.199 5758.87 285.473 5759.379 C 285.748 5759.902 285.552 5760.555 285.042 5760.829 C 282.323 5762.288 280.627 5765.123 280.627 5768.209 C 280.629 5772.303 283.593 5775.794 287.632 5776.461 C 291.671 5777.128 295.6 5774.774 296.917 5770.898 C 298.234 5767.022 296.554 5762.762 292.945 5760.829 C 292.693 5760.696 292.505 5760.468 292.424 5760.195 C 292.343 5759.922 292.375 5759.628 292.514 5759.379 C 292.788 5758.857 293.441 5758.661 293.963 5758.948 C 297.377 5760.776 299.506 5764.337 299.502 5768.209 C 299.515 5774.008 294.799 5778.724 289 5778.724 Z " fill="rgb(46,46,46)"/></g></svg>