<?xml version="1.0" standalone="no"?><!-- Generator: Gravit.io --><svg xmlns="http://www.w3.org/2000/svg" xmlns:xlink="http://www.w3.org/1999/xlink" style="isolation:isolate" viewBox="241 5822 100 100" width="100" height="100"><g><path d="M 250.5 5822 L 331.5 5822 C 336.743 5822 341 5826.257 341 5831.5 L 341 5912.5 C 341 5917.743 336.743 5922 331.5 5922 L 250.5 5922 C 245.257 5922 241 5917.743 241 5912.5 L 241 5831.5 C 241 5826.257 245.257 5822 250.5 5822 Z" style="stroke:none;fill:#2E2E2E;stroke-miterlimit:10;"/><polygon points="291,5922,261,5882,321,5882" fill="rgb(116,116,116)"/><polygon points="241,5872,281,5842,281,5902" fill="rgb(116,116,116)"/><polygon points="291,5822,321,5862,261,5862" fill="rgb(116,116,116)"/><polygon points="341,5872,301,5902,301,5842" fill="rgb(116,116,116)"/><rect x="278" y="5859" width="26" height="26" transform="matrix(1,0,0,1,0,0)" fill="rgb(114,193,114)"/><path d=" M 291 5847 C 277.194 5847 266 5858.194 266 5872 C 266 5885.806 277.194 5897 291 5897 C 304.806 5897 316 5885.806 316 5872 C 316 5858.194 304.819 5847 291 5847 L 291 5847 Z  M 289.485 5861.263 C 289.485 5860.558 290.06 5859.996 290.752 5859.996 L 291.261 5859.996 C 291.967 5859.996 292.528 5860.571 292.528 5861.263 L 292.528 5869.035 C 292.528 5869.74 291.953 5870.302 291.261 5870.302 L 290.752 5870.302 C 290.052 5870.302 289.485 5869.735 289.485 5869.035 L 289.485 5861.263 L 289.485 5861.263 Z  M 291 5882.724 C 285.201 5882.724 280.485 5878.008 280.485 5872.209 C 280.485 5868.33 282.614 5864.79 286.024 5862.948 C 286.546 5862.674 287.199 5862.87 287.473 5863.379 C 287.748 5863.902 287.552 5864.555 287.042 5864.829 C 284.323 5866.288 282.627 5869.123 282.627 5872.209 C 282.629 5876.303 285.593 5879.794 289.632 5880.461 C 293.671 5881.128 297.6 5878.774 298.917 5874.898 C 300.234 5871.022 298.554 5866.762 294.945 5864.829 C 294.693 5864.696 294.505 5864.468 294.424 5864.195 C 294.343 5863.922 294.375 5863.628 294.514 5863.379 C 294.788 5862.857 295.441 5862.661 295.963 5862.948 C 299.377 5864.776 301.506 5868.337 301.502 5872.209 C 301.515 5878.008 296.799 5882.724 291 5882.724 Z " fill="rgb(46,46,46)"/></g></svg>