<?xml version="1.0" standalone="no"?><!-- Generator: Gravit.io --><svg xmlns="http://www.w3.org/2000/svg" xmlns:xlink="http://www.w3.org/1999/xlink" style="isolation:isolate" viewBox="451 5717 100 100" width="100" height="100"><g><path d="M 460.5 5717 L 541.5 5717 C 546.743 5717 551 5721.257 551 5726.5 L 551 5807.5 C 551 5812.743 546.743 5817 541.5 5817 L 460.5 5817 C 455.257 5817 451 5812.743 451 5807.5 L 451 5726.5 C 451 5721.257 455.257 5717 460.5 5717 Z" style="stroke:none;fill:#2E2E2E;stroke-miterlimit:10;"/><g><polygon points="551,5767,531,5782.087,531,5751.913" fill="rgb(84,183,183)"/><rect x="471" y="5736.827" width="60" height="60.346" transform="matrix(1,0,0,1,0,0)" fill="rgb(46,46,46)" vector-effect="non-scaling-stroke" stroke-width="1" stroke="rgb(185,185,185)" stroke-linejoin="miter" stroke-linecap="square" stroke-miterlimit="2"/><polygon points="471,5767,451,5782.087,451,5751.913" fill="rgb(116,116,116)"/><g transform="matrix(1,0,0,1,471,5751.913)"><text transform="matrix(1,0,0,1,8.141,21.377)" style="font-family:'Open Sans';font-weight:400;font-size:20px;font-style:normal;fill:#54b7b7;stroke:none;">NOT </text><text transform="matrix(1,0,0,1,11.09,48.613)" style="font-family:'Open Sans';font-weight:400;font-size:20px;font-style:normal;fill:#000000;stroke:none;">text </text></g></g></g></svg>