<?xml version="1.0" standalone="no"?><!-- Generator: Gravit.io --><svg xmlns="http://www.w3.org/2000/svg" xmlns:xlink="http://www.w3.org/1999/xlink" style="isolation:isolate" viewBox="241 6031 100 100" width="100" height="100"><g><path d="M 250.5 6031 L 331.5 6031 C 336.743 6031 341 6035.257 341 6040.5 L 341 6121.5 C 341 6126.743 336.743 6131 331.5 6131 L 250.5 6131 C 245.257 6131 241 6126.743 241 6121.5 L 241 6040.5 C 241 6035.257 245.257 6031 250.5 6031 Z" style="stroke:none;fill:#2E2E2E;stroke-miterlimit:10;"/><polygon points="291,6131,261,6091,321,6091" fill="rgb(116,116,116)"/><polygon points="241,6081,281,6051,281,6111" fill="rgb(116,116,116)"/><polygon points="291,6031,321,6071,261,6071" fill="rgb(116,116,116)"/><polygon points="341,6081,301,6111,301,6051" fill="rgb(116,116,116)"/><rect x="278" y="6068" width="26" height="26" transform="matrix(1,0,0,1,0,0)" fill="rgb(158,91,158)"/><path d=" M 291 6056 C 277.194 6056 266 6067.194 266 6081 C 266 6094.806 277.194 6106 291 6106 C 304.806 6106 316 6094.806 316 6081 C 316 6067.194 304.819 6056 291 6056 L 291 6056 Z  M 289.485 6070.263 C 289.485 6069.558 290.06 6068.996 290.752 6068.996 L 291.261 6068.996 C 291.967 6068.996 292.528 6069.571 292.528 6070.263 L 292.528 6078.035 C 292.528 6078.74 291.953 6079.302 291.261 6079.302 L 290.752 6079.302 C 290.052 6079.302 289.485 6078.735 289.485 6078.035 L 289.485 6070.263 L 289.485 6070.263 Z  M 291 6091.724 C 285.201 6091.724 280.485 6087.008 280.485 6081.209 C 280.485 6077.33 282.614 6073.79 286.024 6071.948 C 286.546 6071.674 287.199 6071.87 287.473 6072.379 C 287.748 6072.902 287.552 6073.555 287.042 6073.829 C 284.323 6075.288 282.627 6078.123 282.627 6081.209 C 282.629 6085.303 285.593 6088.794 289.632 6089.461 C 293.671 6090.128 297.6 6087.774 298.917 6083.898 C 300.234 6080.022 298.554 6075.762 294.945 6073.829 C 294.693 6073.696 294.505 6073.468 294.424 6073.195 C 294.343 6072.922 294.375 6072.628 294.514 6072.379 C 294.788 6071.857 295.441 6071.661 295.963 6071.948 C 299.377 6073.776 301.506 6077.337 301.502 6081.209 C 301.515 6087.008 296.799 6091.724 291 6091.724 Z " fill="rgb(46,46,46)"/></g></svg>